# xmcd CD database file
#
# Track frame offsets:
#	150
#	18602
#	37596
#	58408
#	73282
#	90080
#	126657
#	139161
#	154790
#	171164
#	185067
#	202359
#	224803
#	239691
#	255310
#
# Disc length: 3636 seconds
#
# Revision: 0
# Processed by: cddbd v1.5.2PL0 Copyright (c) Steve Scherf et al.
# Submitted via: CDex 1.51
#
DISCID=ee0e320f
DTITLE=Jokers Edition - Mundharmonika
DYEAR=2009
DGENRE=Jazz
TTITLE0=I'll be there
TTITLE1=One day in your life
TTITLE2=Georgia
TTITLE3=Tara
TTITLE4=Once upon a time in the west
TTITLE5=Stevie Wonder Medley
TTITLE6=True love
TTITLE7=Baker street
TTITLE8=Nathalie
TTITLE9=Feel  like making love
TTITLE10=Air
TTITLE11=Misty
TTITLE12=Desperado
TTITLE13=Bluesetto
TTITLE14=Midnight Cowboy
EXTD=YEAR: 2009
EXTT0=
EXTT1=
EXTT2=
EXTT3=
EXTT4=
EXTT5=
EXTT6=
EXTT7=
EXTT8=
EXTT9=
EXTT10=
EXTT11=
EXTT12=
EXTT13=
EXTT14=
PLAYORDER=
